<svg width="347" height="508" viewBox="0 0 347 508" fill="none" xmlns="http://www.w3.org/2000/svg">
<path d="M335.026 318.779C335.026 318.779 292.077 344.157 181.608 344.329C-23.8294 344.65 32.8495 0 32.8495 0C32.8495 0 -82.7667 372.093 176.654 372.983C263.648 373.283 335.026 318.779 335.026 318.779Z" fill="#5FF1D7"/>
<path d="M0 452.05H6.21699V413.726H0V412.938H12.6091L22.9707 443.089H23.0875L33.4491 412.938H45.8393V413.726H39.6223V452.05H45.8393V452.838H27.7867V452.05H34.0183V414.062H33.9015L20.5044 452.896L7.16559 414.456H7.06343V452.05H13.2804V452.838H0V452.05Z" fill="#1E1F20"/>
<path d="M57.5559 432.83C57.5559 436.197 57.7785 439.13 58.2272 441.63C58.6723 444.132 59.4166 446.223 60.4601 447.905C61.5108 449.591 62.8571 450.846 64.5026 451.67C66.1444 452.487 68.1802 452.896 70.6028 452.896C72.9962 452.896 75.0248 452.487 76.6885 451.67C78.3522 450.846 79.7021 449.591 80.7456 447.905C81.7963 446.223 82.5442 444.132 82.993 441.63C83.4381 439.13 83.6643 436.197 83.6643 432.83C83.6643 430.254 83.4929 427.762 83.1535 425.358C82.8215 422.946 82.1794 420.797 81.2272 418.907C80.2713 417.021 78.9432 415.518 77.243 414.398C75.5501 413.281 73.3355 412.719 70.6028 412.719C67.8774 412.719 65.6628 413.281 63.9626 414.398C62.2697 415.518 60.9453 417.021 59.9931 418.907C59.0372 420.797 58.3914 422.946 58.0521 425.358C57.7201 427.762 57.5559 430.254 57.5559 432.83ZM51.1054 432.83C51.1054 429.845 51.6928 427.08 52.8713 424.54C54.0461 422.001 55.5602 419.797 57.41 417.929C59.2561 416.061 61.3394 414.598 63.6561 413.537C65.9693 412.468 68.286 411.931 70.6028 411.931C73.0728 411.931 75.4772 412.468 77.8122 413.537C80.1472 414.598 82.2268 416.061 84.0584 417.929C85.8862 419.797 87.3493 422.001 88.4511 424.54C89.5603 427.08 90.1148 429.845 90.1148 432.83C90.1148 435.449 89.6077 438.007 88.5971 440.506C87.5828 443.009 86.1964 445.231 84.4378 447.175C82.6865 449.123 80.6215 450.692 78.25 451.889C75.8858 453.086 73.3355 453.684 70.6028 453.684C67.8008 453.684 65.2031 453.104 62.8097 451.947C60.4236 450.791 58.3622 449.248 56.6219 447.321C54.8889 445.395 53.5353 443.173 52.5648 440.652C51.5907 438.134 51.1054 435.526 51.1054 432.83Z" fill="#1E1F20"/>
<path d="M95.1054 452.05H101.322V413.726H95.1054V412.938H107.087L126.03 443.483H126.147V413.726H119.93V412.938H133.21V413.726H126.993V453.626H125.869L102.271 416.018H102.154V452.05H108.386V452.838H95.1054V452.05Z" fill="#1E1F20"/>
<path d="M187.573 452.838H186.726C186.463 452.538 186.161 452.265 185.821 452.02C185.489 451.78 184.968 451.656 184.26 451.656C183.694 451.656 183.085 451.765 182.436 451.977C181.783 452.181 181.035 452.414 180.188 452.677C179.349 452.929 178.408 453.159 177.357 453.363C176.313 453.575 175.161 453.684 173.898 453.684C171.541 453.684 169.25 453.254 167.024 452.4C164.806 451.535 162.705 450.13 160.72 448.182C158.888 446.354 157.356 444.191 156.123 441.688C154.897 439.189 154.284 436.296 154.284 433.005C154.284 430.203 154.784 427.532 155.787 424.993C156.798 422.446 158.199 420.202 159.99 418.265C161.789 416.32 163.901 414.777 166.324 413.639C168.754 412.5 171.41 411.931 174.292 411.931C175.449 411.931 176.474 412.044 177.372 412.267C178.265 412.493 179.068 412.745 179.78 413.026C180.487 413.3 181.14 413.551 181.735 413.785C182.337 414.011 182.917 414.12 183.472 414.12C184.22 414.12 184.749 414 185.062 413.756C185.384 413.515 185.675 413.241 185.938 412.938H186.785V424.146H186.172C185.829 422.727 185.398 421.326 184.873 419.943C184.355 418.564 183.632 417.342 182.698 416.28C181.764 415.211 180.575 414.35 179.137 413.697C177.696 413.048 175.912 412.719 173.781 412.719C171.797 412.719 170.093 413.026 168.674 413.639C167.262 414.252 166.069 415.076 165.098 416.105C164.124 417.127 163.347 418.323 162.763 419.695C162.187 421.06 161.749 422.497 161.45 424.015C161.147 425.525 160.946 427.058 160.851 428.612C160.764 430.159 160.72 431.626 160.72 433.005C160.72 436.927 161.034 440.178 161.669 442.753C162.311 445.333 163.201 447.372 164.339 448.868C165.478 450.357 166.849 451.404 168.455 452.006C170.06 452.6 171.833 452.896 173.781 452.896C176.281 452.896 178.295 452.542 179.823 451.831C181.359 451.123 182.596 450.196 183.53 449.058C184.464 447.92 185.172 446.632 185.661 445.19C186.146 443.753 186.573 442.323 186.945 440.9H187.573V452.838Z" fill="#1E1F20"/>
<path d="M200.681 432.83C200.681 436.197 200.904 439.13 201.353 441.63C201.798 444.132 202.542 446.223 203.586 447.905C204.636 449.591 205.983 450.846 207.628 451.67C209.27 452.487 211.306 452.896 213.728 452.896C216.122 452.896 218.15 452.487 219.814 451.67C221.478 450.846 222.828 449.591 223.871 447.905C224.922 446.223 225.67 444.132 226.119 441.63C226.564 439.13 226.79 436.197 226.79 432.83C226.79 430.254 226.618 427.762 226.279 425.358C225.947 422.946 225.305 420.797 224.353 418.907C223.397 417.021 222.069 415.518 220.369 414.398C218.676 413.281 216.461 412.719 213.728 412.719C211.003 412.719 208.788 413.281 207.088 414.398C205.395 415.518 204.071 417.021 203.119 418.907C202.163 420.797 201.517 422.946 201.178 425.358C200.846 427.762 200.681 430.254 200.681 432.83ZM194.231 432.83C194.231 429.845 194.818 427.08 195.997 424.54C197.172 422.001 198.686 419.797 200.536 417.929C202.382 416.061 204.465 414.598 206.782 413.537C209.095 412.468 211.412 411.931 213.728 411.931C216.198 411.931 218.603 412.468 220.938 413.537C223.273 414.598 225.352 416.061 227.184 417.929C229.012 419.797 230.475 422.001 231.577 424.54C232.686 427.08 233.24 429.845 233.24 432.83C233.24 435.449 232.733 438.007 231.723 440.506C230.708 443.009 229.322 445.231 227.563 447.175C225.812 449.123 223.747 450.692 221.376 451.889C219.011 453.086 216.461 453.684 213.728 453.684C210.926 453.684 208.329 453.104 205.935 451.947C203.549 450.791 201.488 449.248 199.747 447.321C198.014 445.395 196.661 443.173 195.69 440.652C194.716 438.134 194.231 435.526 194.231 432.83Z" fill="#1E1F20"/>
<path d="M250.55 431.035H255.716C256.756 431.035 257.705 430.903 258.562 430.641C259.427 430.378 260.168 429.922 260.78 429.269C261.401 428.619 261.879 427.733 262.211 426.613C262.55 425.496 262.721 424.073 262.721 422.351C262.721 420.407 262.466 418.845 261.963 417.667C261.455 416.492 260.799 415.605 259.992 415.011C259.193 414.42 258.299 414.029 257.307 413.843C256.315 413.65 255.337 413.551 254.374 413.551C253.691 413.551 253.006 413.562 252.316 413.58C251.623 413.602 251.035 413.65 250.55 413.726V431.035ZM238.729 452.05H244.946V413.726H238.729V412.938H249.383C249.828 412.938 250.277 412.931 250.725 412.909C251.17 412.891 251.619 412.862 252.068 412.822C252.513 412.822 252.962 412.814 253.411 412.792C253.856 412.774 254.304 412.763 254.753 412.763C256.961 412.763 258.905 412.887 260.591 413.128C262.273 413.372 263.838 414.073 265.29 415.23C266.603 416.244 267.526 417.386 268.063 418.659C268.606 419.925 268.88 421.118 268.88 422.235C268.88 422.8 268.778 423.519 268.574 424.394C268.369 425.27 267.92 426.171 267.231 427.094C266.538 428.01 265.538 428.853 264.225 429.619C262.918 430.378 261.182 430.889 259.015 431.151V431.268C259.617 431.337 260.43 431.48 261.452 431.691C262.481 431.896 263.528 432.242 264.589 432.727C265.658 433.205 266.64 433.848 267.537 434.654C268.431 435.453 269.07 436.489 269.449 437.762C269.672 438.514 269.829 439.364 269.916 440.316C270.011 441.272 270.084 442.254 270.135 443.264C270.194 444.267 270.252 445.234 270.31 446.168C270.369 447.102 270.471 447.887 270.617 448.518C270.839 449.492 271.193 450.371 271.682 451.159C272.167 451.94 272.952 452.327 274.032 452.327C274.517 452.327 275.024 452.236 275.549 452.05C276.075 451.867 276.542 451.568 276.95 451.159L277.461 451.772C277.264 451.918 277.045 452.079 276.805 452.254C276.571 452.422 276.265 452.582 275.885 452.735C275.513 452.881 275.057 452.998 274.513 453.086C273.966 453.181 273.306 453.232 272.529 453.232C271.029 453.232 269.785 453.046 268.792 452.677C267.807 452.298 267.016 451.743 266.414 451.013C265.819 450.284 265.381 449.39 265.1 448.328C264.816 447.259 264.622 446.019 264.516 444.607L264.122 439.499C263.966 437.631 263.586 436.179 262.984 435.135C262.389 434.085 261.689 433.318 260.883 432.83C260.084 432.344 259.255 432.056 258.402 431.969C257.544 431.874 256.796 431.823 256.154 431.823H250.55V452.05H256.782V452.838H238.729V452.05Z" fill="#1E1F20"/>
<path d="M291.011 432.771C291.758 432.928 292.543 433.045 293.36 433.121C294.185 433.191 294.914 433.224 295.549 433.224C298.322 433.224 300.482 432.414 302.029 430.786C303.576 429.163 304.349 426.708 304.349 423.417C304.349 421.512 304.163 419.925 303.795 418.659C303.423 417.386 302.835 416.368 302.029 415.609C301.219 414.843 300.168 414.306 298.877 414.004C297.592 413.704 296.053 413.551 294.265 413.551C293.554 413.551 292.908 413.573 292.324 413.61C291.748 413.65 291.31 413.69 291.011 413.726V432.771ZM279.19 452.05H285.407V413.726H279.19V412.938H289.726C290.252 412.938 290.77 412.931 291.288 412.909C291.813 412.891 292.339 412.862 292.864 412.822C293.389 412.822 293.904 412.814 294.411 412.792C294.914 412.774 295.425 412.763 295.943 412.763C298.074 412.763 300.044 413.019 301.854 413.522C303.671 414.029 305.243 414.748 306.568 415.682C307.888 416.616 308.925 417.74 309.676 419.053C310.424 420.359 310.8 421.811 310.8 423.417C310.8 425.102 310.366 426.598 309.501 427.911C308.644 429.218 307.505 430.316 306.086 431.21C304.663 432.107 303.01 432.797 301.124 433.282C299.245 433.771 297.275 434.012 295.214 434.012C294.696 434.012 294.024 433.968 293.2 433.88C292.382 433.785 291.653 433.676 291.011 433.559V452.05H297.242V452.838H279.19V452.05Z" fill="#1E1F20"/>
<path d="M318.027 440.783H318.64C319.049 442.808 319.578 444.512 320.231 445.891C320.891 447.274 321.61 448.412 322.391 449.306C323.179 450.203 324 450.893 324.857 451.378C325.722 451.867 326.594 452.221 327.47 452.444C328.345 452.67 329.181 452.801 329.98 452.838C330.786 452.874 331.545 452.896 332.256 452.896C334.241 452.896 335.865 452.6 337.131 452.006C338.404 451.404 339.415 450.645 340.166 449.729C340.914 448.817 341.436 447.828 341.728 446.767C342.027 445.698 342.18 444.716 342.18 443.819C342.18 442.505 341.936 441.382 341.451 440.448C340.962 439.514 340.345 438.722 339.597 438.069C338.856 437.419 338.043 436.887 337.16 436.478C336.284 436.062 335.452 435.741 334.664 435.515L328.229 433.559C325.2 432.625 322.909 431.396 321.355 429.867C319.808 428.331 319.034 426.273 319.034 423.694C319.034 422.012 319.33 420.454 319.925 419.024C320.527 417.586 321.369 416.346 322.449 415.302C323.537 414.252 324.835 413.431 326.346 412.836C327.864 412.234 329.516 411.931 331.308 411.931C332.61 411.931 333.701 412.044 334.577 412.267C335.46 412.493 336.219 412.745 336.853 413.026C337.496 413.3 338.065 413.551 338.561 413.785C339.064 414.011 339.583 414.12 340.108 414.12C340.593 414.12 340.918 414.058 341.086 413.931C341.25 413.796 341.483 413.464 341.786 412.938H342.574V423.081H341.903C341.677 421.738 341.294 420.439 340.75 419.184C340.203 417.929 339.502 416.831 338.649 415.886C337.791 414.934 336.755 414.171 335.54 413.595C334.321 413.011 332.913 412.719 331.308 412.719C330.41 412.719 329.418 412.843 328.331 413.084C327.251 413.318 326.244 413.737 325.31 414.339C324.376 414.934 323.595 415.718 322.975 416.689C322.362 417.663 322.055 418.9 322.055 420.396C322.055 421.592 322.296 422.61 322.785 423.446C323.27 424.285 323.898 424.993 324.668 425.576C325.434 426.153 326.295 426.638 327.251 427.036C328.203 427.426 329.163 427.773 330.126 428.072L336.912 430.203C337.62 430.429 338.517 430.724 339.597 431.093C340.684 431.465 341.742 432.023 342.764 432.771C343.793 433.523 344.676 434.515 345.405 435.748C346.135 436.985 346.5 438.55 346.5 440.448C346.5 442.21 346.168 443.884 345.508 445.468C344.855 447.055 343.91 448.456 342.676 449.671C341.451 450.889 339.955 451.86 338.196 452.59C336.445 453.319 334.464 453.684 332.256 453.684C331.476 453.684 330.786 453.673 330.184 453.655C329.589 453.633 329.031 453.586 328.506 453.509C327.98 453.429 327.455 453.341 326.93 453.246C326.412 453.159 325.839 453.02 325.208 452.838C324.456 452.615 323.65 452.356 322.785 452.064C321.928 451.765 321.183 451.612 320.552 451.612C319.987 451.612 319.604 451.725 319.399 451.947C319.195 452.174 319.02 452.469 318.874 452.838H318.027V440.783Z" fill="#1E1F20"/>
<path d="M66.364 507.131H80.0677V505.015H68.6553V486.86H66.364V507.131Z" fill="#1E1F20"/>
<path d="M101.865 486.86V507.131H104.156V486.86H101.865Z" fill="#1E1F20"/>
<path d="M136.097 486.86H127.458V507.131H136.462C137.571 507.131 138.578 507.007 139.483 506.751C140.388 506.5 141.161 506.139 141.803 505.672C142.453 505.197 142.949 504.614 143.292 503.92C143.642 503.22 143.817 502.439 143.817 501.571C143.817 500.881 143.701 500.268 143.467 499.732C143.241 499.188 142.934 498.721 142.548 498.331C142.157 497.944 141.694 497.612 141.161 497.339C140.636 497.058 140.074 496.828 139.483 496.653C139.881 496.478 140.271 496.259 140.65 495.996C141.03 495.733 141.369 495.412 141.672 495.033C141.982 494.646 142.23 494.201 142.416 493.705C142.599 493.201 142.694 492.607 142.694 491.924C142.694 491.158 142.537 490.461 142.227 489.837C141.924 489.206 141.482 488.677 140.899 488.247C140.315 487.809 139.618 487.47 138.812 487.225C138.002 486.984 137.097 486.86 136.097 486.86ZM135.718 495.894H129.72V488.918H135.893C137.341 488.918 138.45 489.221 139.22 489.823C139.986 490.417 140.373 491.224 140.373 492.245C140.373 493.442 139.939 494.354 139.074 494.974C138.206 495.587 137.09 495.894 135.718 495.894ZM136.52 505.073H129.72V497.922H136.126C137.896 497.922 139.235 498.229 140.14 498.842C141.052 499.447 141.511 500.308 141.511 501.425C141.511 502.585 141.063 503.483 140.169 504.125C139.282 504.759 138.067 505.073 136.52 505.073Z" fill="#1E1F20"/>
<path d="M180.386 486.86H165.734V507.131H180.532V505.044H168.025V497.951H179.087V495.865H168.025V488.947H180.386V486.86ZM173.644 485.24L176.913 482.103L174.607 481.037L171.849 485.24H173.644Z" fill="#1E1F20"/>
<path d="M219.275 507.131L213.058 498.856C213.846 498.721 214.575 498.488 215.247 498.156C215.925 497.827 216.509 497.419 216.998 496.93C217.494 496.434 217.877 495.857 218.151 495.193C218.421 494.522 218.56 493.763 218.56 492.917C218.56 492.012 218.384 491.191 218.034 490.45C217.684 489.702 217.188 489.064 216.546 488.539C215.911 488.006 215.148 487.59 214.254 487.298C213.357 487.006 212.35 486.86 211.233 486.86H202.506V507.131H204.798V499.25H210.591L216.473 507.131H219.275ZM216.239 493.004C216.239 493.657 216.108 494.245 215.845 494.77C215.582 495.288 215.218 495.726 214.751 496.083C214.291 496.445 213.744 496.722 213.101 496.915C212.467 497.101 211.777 497.193 211.029 497.193H204.798V488.976H211.058C212.693 488.976 213.963 489.334 214.867 490.042C215.779 490.742 216.239 491.731 216.239 493.004Z" fill="#1E1F20"/>
<path d="M255.464 486.86H240.811V507.131H255.61V505.044H243.103V497.951H254.165V495.865H243.103V488.947H255.464V486.86ZM248.721 485.24L251.99 482.103L249.685 481.037L246.926 485.24H248.721Z" fill="#1E1F20"/>
<path d="M194.139 224.601C165.867 196.771 88.8402 233.215 122.176 291.503C148.062 328.877 212.563 306.41 213.902 268.861C192.683 312.31 154.17 297.278 143.195 278.427C125.493 244.405 161.313 207.33 194.139 224.601Z" fill="#1E1F20"/>
</svg>
