<svg width="329" height="463" viewBox="0 0 329 463" fill="none" xmlns="http://www.w3.org/2000/svg">
<path d="M328.027 318.779C328.027 318.779 285.077 344.157 174.609 344.329C-30.8287 344.65 25.8503 0 25.8503 0C25.8503 0 -89.766 372.093 169.655 372.983C256.649 373.283 328.027 318.779 328.027 318.779Z" fill="#5FF1D7"/>
<path d="M100 461.132H106.217V422.809H100V422.021H112.609L122.971 452.172H123.087L133.449 422.021H145.839V422.809H139.622V461.132H145.839V461.92H127.787V461.132H134.018V423.145H133.902L120.504 461.979L107.166 423.539H107.063V461.132H113.28V461.92H100V461.132Z" fill="white"/>
<path d="M179.128 462.03H178.281C178.019 461.731 177.716 461.457 177.377 461.213C177.045 460.972 176.523 460.848 175.815 460.848C175.25 460.848 174.64 460.957 173.991 461.169C173.338 461.373 172.59 461.607 171.743 461.869C170.904 462.121 169.963 462.351 168.912 462.555C167.869 462.767 166.716 462.876 165.453 462.876C163.097 462.876 160.805 462.446 158.58 461.592C156.362 460.727 154.26 459.323 152.275 457.375C150.444 455.547 148.911 453.383 147.678 450.88C146.452 448.381 145.839 445.488 145.839 442.197C145.839 439.395 146.339 436.724 147.342 434.185C148.353 431.638 149.754 429.395 151.546 427.457C153.344 425.513 155.457 423.969 157.879 422.831C160.309 421.693 162.965 421.124 165.848 421.124C167.004 421.124 168.029 421.237 168.927 421.459C169.821 421.685 170.623 421.937 171.335 422.218C172.043 422.492 172.696 422.744 173.29 422.977C173.892 423.203 174.472 423.313 175.027 423.313C175.775 423.313 176.304 423.192 176.618 422.948C176.939 422.707 177.231 422.433 177.493 422.131H178.34V433.339H177.727C177.384 431.919 176.953 430.518 176.428 429.136C175.91 427.757 175.188 426.534 174.254 425.473C173.32 424.404 172.13 423.543 170.693 422.889C169.252 422.24 167.467 421.912 165.337 421.912C163.352 421.912 161.648 422.218 160.229 422.831C158.817 423.444 157.624 424.269 156.653 425.297C155.679 426.319 154.902 427.516 154.318 428.888C153.742 430.252 153.304 431.69 153.005 433.207C152.702 434.718 152.501 436.25 152.407 437.804C152.319 439.351 152.275 440.818 152.275 442.197C152.275 446.119 152.589 449.37 153.224 451.946C153.866 454.525 154.756 456.565 155.895 458.06C157.033 459.549 158.405 460.596 160.01 461.198C161.615 461.793 163.388 462.088 165.337 462.088C167.836 462.088 169.85 461.734 171.379 461.023C172.915 460.315 174.151 459.388 175.085 458.25C176.019 457.112 176.727 455.824 177.216 454.383C177.701 452.945 178.128 451.515 178.5 450.092H179.128V462.03Z" fill="white"/>
<path d="M191.288 456.56C191.288 457.755 191.395 458.629 191.608 459.184C191.864 459.739 192.312 460.123 192.952 460.336C193.635 460.507 194.701 460.592 196.152 460.592H202.296C204.856 460.592 206.947 459.824 208.568 458.288C210.232 456.709 211.32 454.576 211.832 451.888C211.832 451.76 211.939 451.717 212.152 451.76C212.408 451.76 212.536 451.824 212.536 451.952C212.152 455.579 211.96 458.608 211.96 461.04C211.96 461.381 211.896 461.637 211.768 461.808C211.64 461.936 211.384 462 211 462H181.304C181.219 462 181.176 461.872 181.176 461.616C181.176 461.36 181.219 461.232 181.304 461.232C182.883 461.232 184.035 461.125 184.76 460.912C185.485 460.699 185.976 460.293 186.232 459.696C186.488 459.056 186.616 458.096 186.616 456.816V427.184C186.616 425.904 186.488 424.965 186.232 424.368C185.976 423.771 185.485 423.365 184.76 423.152C184.035 422.896 182.883 422.768 181.304 422.768C181.219 422.768 181.176 422.64 181.176 422.384C181.176 422.128 181.219 422 181.304 422L184.504 422.064C186.296 422.149 187.768 422.192 188.92 422.192C190.157 422.192 191.672 422.149 193.464 422.064L196.6 422C196.685 422 196.728 422.128 196.728 422.384C196.728 422.64 196.685 422.768 196.6 422.768C195.064 422.768 193.912 422.896 193.144 423.152C192.419 423.365 191.928 423.792 191.672 424.432C191.416 425.029 191.288 425.968 191.288 427.248V456.56Z" fill="white"/>
<path d="M187.139 224.601C158.868 196.771 81.8411 233.215 115.177 291.503C141.063 328.877 205.564 306.41 206.903 268.861C185.684 312.31 147.171 297.278 136.196 278.427C118.494 244.405 154.314 207.33 187.139 224.601Z" fill="white"/>
</svg>
